<?xml version="1.0" encoding="UTF-8" standalone="no"?>
<!DOCTYPE svg PUBLIC "-//W3C//DTD SVG 1.1//EN"
 "http://www.w3.org/Graphics/SVG/1.1/DTD/svg11.dtd">
<!-- Generated by graphviz version 5.0.0 (20220707.1540)
 -->
<!-- Title: dependencies Pages: 1 -->
<svg width="1266pt" height="247pt"
 viewBox="0.00 0.00 1266.00 246.80" xmlns="http://www.w3.org/2000/svg" xmlns:xlink="http://www.w3.org/1999/xlink">
<g id="graph0" class="graph" transform="scale(1 1) rotate(0) translate(4 242.8)">
<title>dependencies</title>
<polygon fill="white" stroke="transparent" points="-4,4 -4,-242.8 1262,-242.8 1262,4 -4,4"/>
<text text-anchor="middle" x="629" y="-8.2" font-family="sans-serif" font-size="14.00">dependencies</text>
<g id="clust1" class="cluster">
<title>cluster_AppModule</title>
<polygon fill="none" stroke="black" stroke-dasharray="1,5" points="8,-32.8 8,-230.8 1250,-230.8 1250,-32.8 8,-32.8"/>
</g>
<g id="clust2" class="cluster">
<title>cluster_AppModule_declarations</title>
<polygon fill="none" stroke="black" points="16,-40.8 16,-92.8 1242,-92.8 1242,-40.8 16,-40.8"/>
</g>
<g id="clust12" class="cluster">
<title>cluster_AppModule_bootstrap</title>
<polygon fill="none" stroke="black" points="644,-170.8 644,-222.8 768,-222.8 768,-170.8 644,-170.8"/>
</g>
<!-- AppComponent -->
<g id="node1" class="node">
<title>AppComponent</title>
<polygon fill="#ffffb3" stroke="black" points="1233.94,-84.8 1128.06,-84.8 1128.06,-48.8 1233.94,-48.8 1233.94,-84.8"/>
<text text-anchor="middle" x="1181" y="-62.6" font-family="Times,serif" font-size="14.00">AppComponent</text>
</g>
<!-- AppModule -->
<g id="node8" class="node">
<title>AppModule</title>
<polygon fill="#8dd3c7" stroke="black" points="747.66,-149.8 744.66,-153.8 723.66,-153.8 720.66,-149.8 664.34,-149.8 664.34,-113.8 747.66,-113.8 747.66,-149.8"/>
<text text-anchor="middle" x="706" y="-127.6" font-family="Times,serif" font-size="14.00">AppModule</text>
</g>
<!-- AppComponent&#45;&gt;AppModule -->
<g id="edge1" class="edge">
<title>AppComponent&#45;&gt;AppModule</title>
<path fill="none" stroke="black" d="M1181,-85.09C1181,-107.01 1181,-140.8 1181,-140.8 1181,-140.8 757.74,-140.8 757.74,-140.8"/>
<polygon fill="black" stroke="black" points="757.74,-137.3 747.74,-140.8 757.74,-144.3 757.74,-137.3"/>
</g>
<!-- MspDetailsComponent -->
<g id="node2" class="node">
<title>MspDetailsComponent</title>
<polygon fill="#ffffb3" stroke="black" points="1109.88,-84.8 964.12,-84.8 964.12,-48.8 1109.88,-48.8 1109.88,-84.8"/>
<text text-anchor="middle" x="1037" y="-62.6" font-family="Times,serif" font-size="14.00">MspDetailsComponent</text>
</g>
<!-- MspDetailsComponent&#45;&gt;AppModule -->
<g id="edge2" class="edge">
<title>MspDetailsComponent&#45;&gt;AppModule</title>
<path fill="none" stroke="black" d="M1037,-84.91C1037,-104.14 1037,-131.8 1037,-131.8 1037,-131.8 757.92,-131.8 757.92,-131.8"/>
<polygon fill="black" stroke="black" points="757.92,-128.3 747.92,-131.8 757.92,-135.3 757.92,-128.3"/>
</g>
<!-- MspGridItemComponent -->
<g id="node3" class="node">
<title>MspGridItemComponent</title>
<polygon fill="#ffffb3" stroke="black" points="945.55,-84.8 788.45,-84.8 788.45,-48.8 945.55,-48.8 945.55,-84.8"/>
<text text-anchor="middle" x="867" y="-62.6" font-family="Times,serif" font-size="14.00">MspGridItemComponent</text>
</g>
<!-- MspGridItemComponent&#45;&gt;AppModule -->
<g id="edge3" class="edge">
<title>MspGridItemComponent&#45;&gt;AppModule</title>
<path fill="none" stroke="black" d="M867,-84.83C867,-101.2 867,-122.8 867,-122.8 867,-122.8 757.88,-122.8 757.88,-122.8"/>
<polygon fill="black" stroke="black" points="757.88,-119.3 747.88,-122.8 757.88,-126.3 757.88,-119.3"/>
</g>
<!-- MspListComponent -->
<g id="node4" class="node">
<title>MspListComponent</title>
<polygon fill="#ffffb3" stroke="black" points="770.01,-84.8 641.99,-84.8 641.99,-48.8 770.01,-48.8 770.01,-84.8"/>
<text text-anchor="middle" x="706" y="-62.6" font-family="Times,serif" font-size="14.00">MspListComponent</text>
</g>
<!-- MspListComponent&#45;&gt;AppModule -->
<g id="edge4" class="edge">
<title>MspListComponent&#45;&gt;AppModule</title>
<path fill="none" stroke="black" d="M706,-84.91C706,-84.91 706,-103.79 706,-103.79"/>
<polygon fill="black" stroke="black" points="702.5,-103.79 706,-113.79 709.5,-103.79 702.5,-103.79"/>
</g>
<!-- MspPartiesDetailsComponent -->
<g id="node5" class="node">
<title>MspPartiesDetailsComponent</title>
<polygon fill="#ffffb3" stroke="black" points="623.99,-84.8 440.01,-84.8 440.01,-48.8 623.99,-48.8 623.99,-84.8"/>
<text text-anchor="middle" x="532" y="-62.6" font-family="Times,serif" font-size="14.00">MspPartiesDetailsComponent</text>
</g>
<!-- MspPartiesDetailsComponent&#45;&gt;AppModule -->
<g id="edge5" class="edge">
<title>MspPartiesDetailsComponent&#45;&gt;AppModule</title>
<path fill="none" stroke="black" d="M532,-84.83C532,-101.2 532,-122.8 532,-122.8 532,-122.8 654.32,-122.8 654.32,-122.8"/>
<polygon fill="black" stroke="black" points="654.32,-126.3 664.32,-122.8 654.32,-119.3 654.32,-126.3"/>
</g>
<!-- MspPersonalDetailComponent -->
<g id="node6" class="node">
<title>MspPersonalDetailComponent</title>
<polygon fill="#ffffb3" stroke="black" points="422.15,-84.8 233.85,-84.8 233.85,-48.8 422.15,-48.8 422.15,-84.8"/>
<text text-anchor="middle" x="328" y="-62.6" font-family="Times,serif" font-size="14.00">MspPersonalDetailComponent</text>
</g>
<!-- MspPersonalDetailComponent&#45;&gt;AppModule -->
<g id="edge6" class="edge">
<title>MspPersonalDetailComponent&#45;&gt;AppModule</title>
<path fill="none" stroke="black" d="M328,-84.91C328,-104.14 328,-131.8 328,-131.8 328,-131.8 654.1,-131.8 654.1,-131.8"/>
<polygon fill="black" stroke="black" points="654.1,-135.3 664.1,-131.8 654.1,-128.3 654.1,-135.3"/>
</g>
<!-- MspWebsiteDetailsComponent -->
<g id="node7" class="node">
<title>MspWebsiteDetailsComponent</title>
<polygon fill="#ffffb3" stroke="black" points="215.75,-84.8 24.25,-84.8 24.25,-48.8 215.75,-48.8 215.75,-84.8"/>
<text text-anchor="middle" x="120" y="-62.6" font-family="Times,serif" font-size="14.00">MspWebsiteDetailsComponent</text>
</g>
<!-- MspWebsiteDetailsComponent&#45;&gt;AppModule -->
<g id="edge7" class="edge">
<title>MspWebsiteDetailsComponent&#45;&gt;AppModule</title>
<path fill="none" stroke="black" d="M120,-85.09C120,-107.01 120,-140.8 120,-140.8 120,-140.8 654.33,-140.8 654.33,-140.8"/>
<polygon fill="black" stroke="black" points="654.33,-144.3 664.33,-140.8 654.33,-137.3 654.33,-144.3"/>
</g>
<!-- AppComponent  -->
<g id="node9" class="node">
<title>AppComponent </title>
<polygon fill="#80b1d3" stroke="black" points="760.44,-214.8 651.56,-214.8 651.56,-178.8 760.44,-178.8 760.44,-214.8"/>
<text text-anchor="middle" x="706" y="-192.6" font-family="Times,serif" font-size="14.00">AppComponent </text>
</g>
<!-- AppModule&#45;&gt;AppComponent  -->
<g id="edge8" class="edge">
<title>AppModule&#45;&gt;AppComponent </title>
<path fill="none" stroke="black" stroke-dasharray="1,5" d="M706,-149.91C706,-149.91 706,-168.79 706,-168.79"/>
<polygon fill="black" stroke="black" points="702.5,-168.79 706,-178.79 709.5,-168.79 702.5,-168.79"/>
</g>
</g>
</svg>
